<?xml version="1.0" encoding="utf-8"?>
<!-- Generator: Adobe Illustrator 15.0.0, SVG Export Plug-In . SVG Version: 6.00 Build 0)  -->
<!DOCTYPE svg PUBLIC "-//W3C//DTD SVG 1.1//EN" "http://www.w3.org/Graphics/SVG/1.1/DTD/svg11.dtd">
<svg version="1.1" id="Layer_1" xmlns="http://www.w3.org/2000/svg" xmlns:xlink="http://www.w3.org/1999/xlink" x="0px" y="0px"
	 width="35px" height="35px" viewBox="32.5 32.5 35 35" enable-background="new 32.5 32.5 35 35" xml:space="preserve">
<path fill="none" stroke="#333333" stroke-width="1.5" stroke-linecap="round" stroke-linejoin="round" stroke-miterlimit="10" d="
	M38.637,57.807H33.5l3.292-17.915c0.132-0.658,0.659-1.053,1.318-1.053h7.903c2.634,0,4.61,1.581,4.61,4.347
	c0,2.767-1.911,8.035-6.455,8.035c-1.383,0-4.017,0-4.017,0L38.637,57.807z"/>
<path fill="none" stroke="#333333" stroke-width="1.5" stroke-linecap="round" stroke-linejoin="round" stroke-miterlimit="10" d="
	M51.728,43.186c1.515,0.658,2.437,1.976,2.437,3.952c0,2.765-1.91,8.035-6.454,8.035c-1.318,0-4.017,0-4.017,0l-1.45,6.652h-5.138
	l0.659-3.754"/>
<path fill="none" stroke="#333333" stroke-width="1.5" stroke-linecap="round" stroke-linejoin="round" stroke-miterlimit="10" d="
	M40.613,47.269l0.922-5.138c0,0,1.712,0,2.24,0c0.855,0,2.042,0.33,1.712,2.305c-0.263,1.844-1.054,2.833-3.49,2.833H40.613z"/>
</svg>
